M48
; DRILL file KiCad 10.0.2 date 2026-06-13T00:19:00
; FORMAT={-:-/ absolute / metric / decimal}
; #@! TF.CreationDate,2026-06-13T00:19:00+12:00
; #@! TF.GenerationSoftware,Kicad,Pcbnew,10.0.2
; #@! TF.FileFunction,Plated,1,4,PTH
FMAT,2
METRIC
; #@! TA.AperFunction,Plated,PTH,ViaDrill
T1C0.250
; #@! TA.AperFunction,Plated,PTH,ViaDrill
T2C0.300
; #@! TA.AperFunction,Plated,PTH,ViaDrill
T3C0.400
; #@! TA.AperFunction,Plated,PTH,ComponentDrill
T4C0.600
; #@! TA.AperFunction,Plated,PTH,ComponentDrill
T5C0.700
; #@! TA.AperFunction,Plated,PTH,ComponentDrill
T6C1.000
%
G90
G05
T1
X100.0Y-109.8
X100.0Y-114.3
X101.7Y-87.6
X101.7Y-88.6
X101.95Y-109.85
X101.95Y-113.85
X103.3Y-78.8
X103.45Y-89.45
X103.7Y-86.4
X103.9Y-112.65
X104.15Y-109.5
X104.15Y-110.35
X104.15Y-113.5
X104.43Y-115.75
X104.45Y-77.6
X105.05Y-83.4
X105.45Y-108.1
X105.7Y-101.6
X105.9Y-81.05
X106.05Y-114.3
X106.65Y-81.05
X106.95Y-108.95
X107.2Y-91.85
X107.315Y-89.913
X107.6Y-77.85
X107.75Y-110.2
X107.912Y-90.449
X107.95Y-113.5
X108.001Y-92.582
X108.2Y-112.65
X108.6Y-77.825
X108.6Y-80.55
X108.8Y-92.007
X108.9Y-75.6
X109.05Y-115.3
X109.4Y-83.2
X109.4Y-85.8
X109.4Y-88.4
X110.6Y-84.4
X110.6Y-87.3
X111.0Y-79.3
X111.05Y-75.65
X111.181Y-91.303
X111.3Y-114.95
X111.518Y-92.132
X111.55Y-92.882
X111.85Y-77.2
X112.0Y-83.2
X112.0Y-88.4
X112.6Y-78.75
X112.65Y-77.5
X112.65Y-90.9
X113.3Y-84.4
X113.3Y-87.3
X113.65Y-115.3
X113.9Y-114.5
X114.35Y-91.55
X114.5Y-94.3
X114.6Y-78.5
X114.6Y-83.2
X114.6Y-85.8
X114.6Y-88.4
X114.65Y-116.25
X115.25Y-93.55
X116.1Y-115.65
X116.3Y-93.35
X116.35Y-96.05
X116.7Y-98.1
X116.9Y-89.55
X116.954Y-86.804
X116.996Y-85.125
X117.08Y-91.52
X117.6Y-111.2
X117.6Y-112.9
X117.665Y-101.315
X117.83Y-117.03
X118.3Y-91.2
X118.35Y-108.35
X118.4Y-81.35
X118.75Y-115.1
X118.9Y-95.5
X119.1Y-107.35
X119.2Y-111.2
X119.2Y-112.9
X119.6Y-88.3
X119.75Y-95.05
X120.086Y-86.582
X120.2Y-82.2
X120.237Y-83.2
X120.475Y-94.275
X120.55Y-96.05
X120.787Y-84.55
X120.804Y-107.204
X120.804Y-108.496
X121.0Y-101.05
X121.15Y-117.15
X121.5Y-110.0
X121.5Y-110.95
X121.582Y-86.275
X121.582Y-87.5
X121.6Y-93.3
X121.8Y-94.8
X121.85Y-95.85
X122.0Y-84.45
X122.4Y-99.4
X122.575Y-94.275
X123.0Y-117.175
X123.35Y-95.65
T2
X112.9Y-76.0
X113.6Y-75.1
X114.4Y-74.3
X114.7Y-73.1
T3
X94.0Y-72.0
X96.0Y-72.0
X98.0Y-72.0
X98.0Y-74.0
X98.0Y-76.0
X98.0Y-78.0
X98.0Y-80.0
X98.0Y-82.0
X98.0Y-84.0
X98.0Y-86.0
X98.0Y-88.0
X98.0Y-90.0
X98.0Y-92.0
X98.0Y-98.0
X98.0Y-102.0
X98.0Y-104.0
X98.0Y-106.0
X98.0Y-108.0
X98.0Y-110.0
X98.0Y-112.0
X98.0Y-114.0
X98.0Y-116.0
X98.0Y-118.0
X98.0Y-120.0
X98.0Y-122.0
X98.0Y-124.0
X98.45Y-100.4
X100.0Y-72.0
X100.0Y-74.0
X100.0Y-76.0
X100.0Y-78.0
X100.0Y-80.0
X100.0Y-82.0
X100.0Y-84.0
X100.0Y-90.0
X100.0Y-106.0
X100.0Y-108.0
X100.0Y-116.0
X100.0Y-118.0
X100.0Y-120.0
X100.0Y-122.0
X100.0Y-124.0
X102.0Y-72.0
X102.0Y-74.0
X102.0Y-76.0
X102.0Y-78.0
X102.0Y-80.0
X102.0Y-94.0
X102.0Y-106.0
X102.0Y-108.0
X102.0Y-116.0
X102.0Y-118.0
X102.0Y-120.0
X102.0Y-122.0
X102.0Y-124.0
X104.0Y-72.0
X104.0Y-74.0
X104.0Y-76.0
X104.0Y-106.0
X104.0Y-108.0
X105.2Y-118.0
X105.2Y-119.9
X105.2Y-121.8
X105.2Y-123.7
X106.0Y-76.0
X106.0Y-94.0
X106.0Y-106.0
X106.9Y-71.7
X106.9Y-72.8
X108.0Y-94.0
X108.0Y-100.0
X108.0Y-106.0
X108.0Y-108.0
X108.15Y-116.3
X108.6Y-101.0
X108.65Y-102.1
X108.7Y-96.65
X108.7Y-97.75
X110.0Y-106.0
X110.0Y-108.0
X110.0Y-110.0
X111.3Y-110.05
X112.0Y-106.0
X112.0Y-108.0
X113.1Y-71.7
X113.1Y-72.8
X114.0Y-104.0
X114.0Y-106.0
X114.0Y-108.0
X114.0Y-110.0
X116.0Y-72.0
X116.0Y-74.0
X116.0Y-76.0
X116.0Y-100.0
X116.0Y-102.0
X116.0Y-104.0
X116.0Y-106.0
X116.0Y-108.0
X117.0Y-118.0
X117.0Y-119.9
X117.0Y-121.8
X117.0Y-123.7
X118.0Y-72.0
X118.0Y-74.0
X120.0Y-72.0
X120.0Y-74.0
X120.0Y-76.0
X120.0Y-78.0
X120.0Y-116.0
X120.0Y-118.0
X120.0Y-120.0
X120.0Y-122.0
X120.0Y-124.0
X122.0Y-72.0
X122.0Y-74.0
X122.0Y-76.0
X122.0Y-78.0
X122.0Y-118.0
X122.0Y-120.0
X122.0Y-122.0
X122.0Y-124.0
X124.0Y-72.0
X124.0Y-74.0
X124.0Y-76.0
X124.0Y-78.0
X124.0Y-82.0
X124.0Y-84.0
X124.0Y-112.0
X124.0Y-114.0
X124.0Y-116.0
X124.0Y-118.0
X124.0Y-120.0
X124.0Y-122.0
X124.0Y-124.0
X126.0Y-72.0
X126.0Y-74.0
X126.0Y-76.0
X126.0Y-78.0
X126.0Y-96.0
X126.0Y-98.0
X126.0Y-100.0
X126.0Y-102.0
X126.0Y-106.0
X126.0Y-112.0
X126.0Y-114.0
X126.0Y-116.0
X126.0Y-118.0
X126.0Y-120.0
X126.0Y-122.0
X126.0Y-124.0
X128.0Y-72.0
X130.0Y-72.0
T5
X112.4Y-96.35
X112.4Y-98.15
X112.45Y-100.65
X112.45Y-102.45
T6
X94.22Y-74.74
X94.22Y-77.28
X94.22Y-79.82
X94.22Y-82.36
X94.22Y-84.9
X94.22Y-87.44
X94.22Y-89.98
X94.22Y-92.52
X94.22Y-95.06
X94.22Y-97.6
X94.22Y-100.14
X94.22Y-102.68
X94.22Y-105.22
X94.22Y-107.76
X94.22Y-110.3
X94.22Y-112.84
X94.22Y-115.38
X94.22Y-117.92
X94.22Y-120.46
X94.22Y-123.0
X129.78Y-74.74
X129.78Y-77.28
X129.78Y-79.82
X129.78Y-82.36
X129.78Y-84.9
X129.78Y-87.44
X129.78Y-89.98
X129.78Y-92.52
X129.78Y-95.06
X129.78Y-97.6
X129.78Y-100.14
X129.78Y-102.68
X129.78Y-105.22
X129.78Y-107.76
X129.78Y-110.3
X129.78Y-112.84
X129.78Y-115.38
X129.78Y-117.92
X129.78Y-120.46
X129.78Y-123.0
T4
G00X106.78Y-117.945
M15
G01X106.78Y-119.045
M16
G05
G00X106.78Y-122.275
M15
G01X106.78Y-123.075
M16
G05
G00X115.42Y-117.945
M15
G01X115.42Y-119.045
M16
G05
G00X115.42Y-122.275
M15
G01X115.42Y-123.075
M16
G05
M30
