G04 #@! TF.GenerationSoftware,KiCad,Pcbnew,10.0.2*
G04 #@! TF.CreationDate,2026-06-13T00:19:00+12:00*
G04 #@! TF.ProjectId,STMPill,53544d50-696c-46c2-9e6b-696361645f70,rev?*
G04 #@! TF.SameCoordinates,Original*
G04 #@! TF.FileFunction,Legend,Bot*
G04 #@! TF.FilePolarity,Positive*
%FSLAX46Y46*%
G04 Gerber Fmt 4.6, Leading zero omitted, Abs format (unit mm)*
G04 Created by KiCad (PCBNEW 10.0.2) date 2026-06-13 00:19:00*
%MOMM*%
%LPD*%
G01*
G04 APERTURE LIST*
%ADD10C,2.374900*%
%ADD11C,0.990600*%
%ADD12C,0.650000*%
%ADD13O,1.000000X2.100000*%
%ADD14O,1.000000X1.800000*%
%ADD15C,0.700000*%
%ADD16R,1.700000X1.700000*%
%ADD17C,1.700000*%
G04 APERTURE END LIST*
%LPC*%
D10*
G04 #@! TO.C,J2*
X100770000Y-96926000D03*
D11*
X100770000Y-99466000D03*
D10*
X100770000Y-102006000D03*
X103945000Y-96926000D03*
X103945000Y-102006000D03*
D11*
X105850000Y-98450000D03*
X105850000Y-100482000D03*
G04 #@! TD*
D12*
G04 #@! TO.C,J3*
X108210000Y-118995000D03*
X113990000Y-118995000D03*
D13*
X106780000Y-118495000D03*
D14*
X106780000Y-122675000D03*
D13*
X115420000Y-118495000D03*
D14*
X115420000Y-122675000D03*
G04 #@! TD*
D15*
G04 #@! TO.C,SW2*
X112400000Y-96350000D03*
X112400000Y-98150000D03*
G04 #@! TD*
G04 #@! TO.C,SW1*
X112450000Y-100650000D03*
X112450000Y-102450000D03*
G04 #@! TD*
D16*
G04 #@! TO.C,J4*
X129780000Y-123000000D03*
D17*
X129780000Y-120460000D03*
X129780000Y-117920000D03*
X129780000Y-115380000D03*
X129780000Y-112840000D03*
X129780000Y-110300000D03*
X129780000Y-107760000D03*
X129780000Y-105220000D03*
X129780000Y-102680000D03*
X129780000Y-100140000D03*
X129780000Y-97600000D03*
X129780000Y-95060000D03*
X129780000Y-92520000D03*
X129780000Y-89980000D03*
X129780000Y-87440000D03*
X129780000Y-84900000D03*
X129780000Y-82360000D03*
X129780000Y-79820000D03*
X129780000Y-77280000D03*
X129780000Y-74740000D03*
G04 #@! TD*
D16*
G04 #@! TO.C,J5*
X94220000Y-123000000D03*
D17*
X94220000Y-120460000D03*
X94220000Y-117920000D03*
X94220000Y-115380000D03*
X94220000Y-112840000D03*
X94220000Y-110300000D03*
X94220000Y-107760000D03*
X94220000Y-105220000D03*
X94220000Y-102680000D03*
X94220000Y-100140000D03*
X94220000Y-97600000D03*
X94220000Y-95060000D03*
X94220000Y-92520000D03*
X94220000Y-89980000D03*
X94220000Y-87440000D03*
X94220000Y-84900000D03*
X94220000Y-82360000D03*
X94220000Y-79820000D03*
X94220000Y-77280000D03*
X94220000Y-74740000D03*
G04 #@! TD*
%LPD*%
M02*
